<?xml version="1.0" encoding="UTF-8"?>
<svg id="Layer_1" data-name="Layer 1" xmlns="http://www.w3.org/2000/svg" xmlns:xlink="http://www.w3.org/1999/xlink" viewBox="0 0 250 250">
  <defs>
    <style>
      .cls-1 {
        clip-path: url(#clippath);
      }

      .cls-2 {
        fill: none;
      }

      .cls-2, .cls-3 {
        stroke-width: 0px;
      }

      .cls-3 {
        fill: url(#linear-gradient);
      }
    </style>
    <clipPath id="clippath">
      <path class="cls-2" d="M199.19,89.4c-1.9,29.59-1.17,61.38,2.34,95.8,1.61,15.09,3.96,31.2,7.18,48.34h-65.92c1.03-7.47,1.61-13.04,1.76-16.7-3.96,3.96-9.23,8.2-15.67,12.6-6.59,4.39-14.21,6.59-22.71,6.59-12.01,0-22.85-3.66-32.67-10.99-9.81-7.47-17.58-17.29-23.44-29.59-5.86-12.45-8.79-26.22-8.79-41.31s2.93-28.71,8.79-41.02,13.62-22.12,23.29-29.3c9.81-7.32,20.65-11.13,32.81-11.43,10.25,0,19.19,2.49,26.66,7.47s13.62,11.28,18.6,18.75,8.94,14.94,11.87,22.41c2.78,7.62,4.83,13.92,6.15,19.04,1.17,5.27,1.76,7.76,1.76,7.76l5.27-.88c-.44-12.3-2.78-23.29-7.03-32.67-4.39-9.38-9.23-18.31-14.79-26.66-4.98-7.62-8.64-16.11-10.84-25.63-2.34-9.52-3.96-19.34-4.98-29.44l69.87-18.6c-4.54,20.8-7.62,46-9.52,75.44ZM95.19,93.51c-3.52,5.57-5.42,13.04-6.01,22.27-.44,9.38.73,19.78,3.66,31.2,2.93,11.57,7.18,21.97,12.45,31.2s11.13,16.7,17.58,22.27c6.3,5.57,12.45,8.35,18.6,8.35s10.69-2.78,14.21-8.35,5.57-13.04,6.01-22.27c.59-9.23-.73-19.63-3.52-31.2-3.08-11.43-7.32-21.83-12.6-31.2-5.27-9.23-11.13-16.7-17.43-22.27-6.45-5.57-12.6-8.35-18.6-8.35s-10.84,2.78-14.36,8.35Z"/>
    </clipPath>
    <linearGradient id="linear-gradient" x1="1.85" y1="2.17" x2="247.07" y2="246.76" gradientUnits="userSpaceOnUse">
      <stop offset="0" stop-color="#ff1d25"/>
      <stop offset="1" stop-color="#3fa9f5"/>
    </linearGradient>
  </defs>
  <g class="cls-1">
    <rect class="cls-3" width="250" height="250"/>
  </g>
</svg>